<svg xmlns="http://www.w3.org/2000/svg" xmlns:xlink="http://www.w3.org/1999/xlink" width="600" zoomAndPan="magnify" viewBox="0 0 450 299.999988" height="400" preserveAspectRatio="xMidYMid meet" version="1.2"><g id="22ab94126a"><path style=" stroke:none;fill-rule:nonzero;fill:#ffffff;fill-opacity:1;" d="M 111.757812 174.292969 C 108.351562 173.265625 105.640625 171.105469 103.480469 167.808594 L 101.503906 164.878906 L 101.503906 153.667969 C 101.503906 142.496094 101.503906 142.460938 102.894531 139.785156 C 103.664062 138.285156 105.3125 136.234375 106.484375 135.207031 C 110.257812 131.984375 112.015625 131.726562 125.824219 131.875 C 139.488281 132.019531 140.257812 132.242188 144.140625 136.085938 C 148.242188 140.191406 148.425781 140.886719 148.574219 159.054688 C 148.792969 176.78125 148.976562 175.902344 145.386719 174.328125 C 142.96875 173.304688 140.585938 170.554688 138.902344 166.964844 C 137.546875 164 137.4375 163.375 137.289062 154.4375 C 137.179688 149.273438 136.886719 144.621094 136.59375 144.144531 C 136.117188 143.304688 135.019531 143.191406 124.910156 143.191406 C 114.800781 143.191406 113.628906 143.339844 113.335938 143.890625 C 112.710938 144.839844 112.566406 161.582031 113.113281 162.496094 C 113.480469 163.011719 115.421875 163.339844 120.585938 163.597656 C 127.949219 164 129.453125 164.328125 132.75 166.050781 C 136.226562 167.808594 139.269531 171.617188 139.269531 174.292969 C 139.269531 176.964844 115.128906 175.28125 111.722656 174.253906 Z M 111.757812 174.292969 "/><path style=" stroke:none;fill-rule:nonzero;fill:#ffffff;fill-opacity:1;" d="M 151.246094 173.230469 C 151.980469 168.835938 157.179688 165.097656 164.03125 164.035156 C 166.265625 163.707031 168.351562 163.082031 169.085938 162.460938 C 170.402344 161.472656 170.402344 161.363281 170.402344 153.121094 L 170.402344 144.839844 L 168.71875 143.816406 C 167.765625 143.230469 166.15625 142.789062 165.128906 142.789062 C 162.417969 142.789062 158.390625 141.433594 155.789062 139.714844 C 153.335938 138.101562 151.101562 134.878906 151.101562 133.046875 L 151.101562 131.839844 L 160.695312 131.839844 C 167.070312 131.839844 171.257812 132.339844 173.261719 133.339844 C 176.226562 134.839844 176.339844 134.839844 177.65625 133.960938 C 180.257812 132.132812 182.417969 131.839844 191.832031 131.839844 C 201.246094 131.839844 201.171875 131.875 201.171875 132.863281 C 201.171875 135.316406 198.058594 139.054688 194.285156 141.140625 C 193.1875 141.726562 190.734375 142.351562 188.792969 142.535156 C 186.8125 142.753906 184.578125 143.304688 183.664062 143.78125 L 182.089844 144.660156 L 181.941406 153.046875 C 181.796875 163.230469 181.832031 163.265625 187.765625 163.851562 C 194.324219 164.546875 200.222656 168.652344 200.953125 173.195312 L 201.285156 175.171875 L 191.429688 174.953125 C 182.308594 174.804688 181.355469 174.695312 179.085938 173.558594 C 176.886719 172.460938 176.410156 172.425781 174.910156 173.046875 C 173.957031 173.414062 172.929688 173.925781 172.492188 174.253906 C 172.015625 174.621094 167.730469 174.878906 161.320312 175.023438 L 150.878906 175.171875 L 151.210938 173.195312 Z M 151.246094 173.230469 "/><path style=" stroke:none;fill-rule:nonzero;fill:#ffffff;fill-opacity:1;" d="M 212.675781 159.859375 C 212.675781 142.605469 212.933594 140.886719 216.117188 137.1875 C 217.109375 135.976562 219.085938 134.367188 220.40625 133.523438 L 222.859375 132.132812 L 241.285156 131.984375 L 259.636719 131.835938 L 259.636719 133.046875 C 259.636719 134.660156 257.695312 137.625 255.347656 139.675781 C 252.234375 142.386719 249.304688 142.972656 236.667969 143.230469 C 230.257812 143.375 225.203125 143.707031 224.835938 144 C 224.46875 144.292969 224.140625 145.355469 224.140625 146.308594 L 224.140625 148.066406 L 249.195312 148.066406 L 248.867188 149.53125 C 247.988281 153.339844 243.957031 157.148438 239.636719 158.285156 C 238.023438 158.6875 234.25 159.015625 230.550781 159.015625 L 224.175781 159.015625 L 223.847656 160.996094 C 222.640625 168.542969 218.9375 174.074219 214.617188 174.878906 L 212.636719 175.246094 L 212.636719 159.898438 Z M 212.675781 159.859375 "/><path style=" stroke:none;fill-rule:nonzero;fill:#ffffff;fill-opacity:1;" d="M 262.566406 158.652344 C 262.566406 144.839844 262.675781 142.9375 263.589844 139.933594 C 264.726562 136.160156 267.363281 132.789062 270.074219 131.472656 C 273.738281 129.75 273.519531 128.90625 273.519531 146.488281 C 273.519531 164.074219 273.371094 162.753906 272.75 164.585938 C 271.0625 169.347656 267.695312 172.9375 264.289062 173.667969 L 262.566406 174.035156 Z M 262.566406 158.652344 "/><path style=" stroke:none;fill-rule:nonzero;fill:#ffffff;fill-opacity:1;" d="M 289.234375 173.632812 C 284.945312 172.605469 281.613281 169.859375 279.378906 165.609375 L 278.023438 163.121094 L 278.023438 138.871094 C 278.023438 119.824219 278.171875 114.660156 278.71875 114.660156 C 280.183594 114.695312 283.664062 116.710938 285.019531 118.359375 C 285.863281 119.347656 287.070312 121.179688 287.621094 122.460938 C 288.644531 124.660156 288.71875 125.941406 288.976562 142.972656 C 289.234375 160.191406 289.304688 161.179688 290.222656 161.910156 C 291.722656 162.9375 311.246094 162.9375 312.75 161.910156 C 313.628906 161.214844 313.738281 160.335938 313.882812 152.898438 C 314.105469 142.167969 314.25 142.351562 306.667969 141.800781 C 300.84375 141.324219 298.792969 140.703125 295.351562 138.210938 C 293.117188 136.601562 291.941406 134.878906 291.320312 132.277344 L 290.953125 130.8125 L 302.859375 130.957031 C 316.117188 131.105469 316.484375 131.214844 320.367188 134.988281 C 324.398438 138.761719 324.652344 139.675781 324.800781 151.949219 L 324.945312 162.898438 L 323.554688 165.648438 C 321.503906 169.675781 317.765625 172.863281 314.066406 173.558594 C 310.882812 174.183594 291.6875 174.253906 289.195312 173.667969 Z M 289.234375 173.632812 "/><path style=" stroke:none;fill-rule:nonzero;fill:#ffffff;fill-opacity:1;" d="M 329.011719 155.792969 L 329.160156 139.714844 L 330.625 136.746094 C 332.347656 133.265625 335.386719 130.445312 338.71875 129.347656 C 341.648438 128.320312 362.75 128.136719 365.9375 129.089844 C 369.269531 130.078125 372.785156 133.15625 374.542969 136.601562 C 376.121094 139.640625 376.121094 139.785156 376.300781 149.238281 L 376.449219 158.796875 L 375.09375 158.796875 C 370.515625 158.796875 365.898438 152.605469 365.128906 145.390625 C 364.507812 139.601562 365.460938 140.007812 352.675781 140.007812 C 339.890625 140.007812 341.394531 140.152344 340.992188 140.703125 C 340.734375 141.03125 340.367188 145.539062 340.257812 150.703125 C 340.039062 158.796875 339.855469 160.519531 338.867188 163.121094 C 337.292969 167.148438 333.554688 171.105469 330.84375 171.582031 L 328.867188 171.910156 L 329.011719 155.832031 Z M 329.011719 155.792969 "/><path style=" stroke:none;fill-rule:nonzero;fill:#ffffff;fill-opacity:1;" d="M 393.007812 170.957031 C 389.820312 170.007812 385.898438 166.488281 384.398438 163.195312 C 383.261719 160.738281 383.152344 160.007812 383.152344 150.152344 C 383.152344 140.300781 383.261719 139.566406 384.398438 137.113281 C 385.972656 133.707031 388.464844 131.289062 391.871094 129.714844 C 394.582031 128.46875 394.835938 128.46875 407.253906 128.613281 L 419.929688 128.761719 L 422.382812 130.152344 C 425.605469 132.09375 428.390625 135.425781 429.304688 138.613281 C 430.332031 142.09375 430.441406 171.800781 429.453125 171.800781 C 428.207031 171.765625 424.617188 169.859375 423.445312 168.613281 C 422.824219 167.917969 421.6875 166.050781 420.84375 164.511719 C 419.453125 161.765625 419.378906 161.324219 419.125 151.691406 C 418.902344 144.328125 418.648438 141.507812 418.132812 140.886719 C 417.511719 140.117188 416.046875 140.007812 407.144531 140.007812 C 398.242188 140.007812 396.777344 140.042969 395.460938 141.105469 L 394.105469 142.132812 L 394.105469 149.96875 C 394.105469 156.878906 396.265625 160.335938 400.589844 160.335938 C 406.960938 160.335938 411.027344 161.070312 414.472656 162.789062 C 417.804688 164.511719 420.734375 167.992188 420.734375 170.300781 L 420.734375 171.800781 L 408.097656 171.800781 C 398.71875 171.765625 394.800781 171.546875 393.007812 170.957031 Z M 393.007812 170.957031 "/><path style=" stroke:none;fill-rule:nonzero;fill:#ffffff;fill-opacity:1;" d="M 34.945312 150.117188 L 34.945312 126.636719 L 36.519531 126.636719 C 38.207031 126.636719 42.785156 129.308594 44.433594 131.105469 C 44.945312 131.691406 45.386719 133.15625 45.421875 134.546875 L 45.566406 137.003906 L 47.507812 135.246094 C 50.734375 132.3125 53.515625 131.179688 57.875 130.921875 C 62.710938 130.664062 66.265625 131.949219 69.085938 135.097656 L 70.953125 137.148438 L 73.003906 135.316406 C 76.777344 131.910156 78.9375 131.105469 84.214844 131.105469 C 89.488281 131.105469 93.078125 132.425781 95.421875 135.648438 C 97.730469 138.761719 98.023438 141.472656 98.023438 158.285156 L 98.023438 173.667969 L 92.453125 173.523438 L 86.8125 173.375 L 86.558594 157.992188 C 86.410156 149.53125 86.082031 142.203125 85.824219 141.65625 C 84.835938 139.53125 80.039062 138.46875 77.546875 139.785156 C 76.921875 140.152344 75.933594 140.886719 75.3125 141.507812 C 72.859375 143.960938 72.746094 144.546875 72.492188 159.3125 L 72.234375 173.375 L 66.667969 173.523438 L 61.027344 173.667969 L 61.027344 159.675781 C 61.027344 152.019531 60.769531 144.769531 60.511719 143.597656 C 60.257812 142.386719 59.414062 140.996094 58.644531 140.261719 C 56.59375 138.542969 52.527344 138.871094 50.039062 140.957031 C 46.742188 143.707031 46.703125 143.78125 46.558594 159.421875 L 46.410156 173.597656 L 34.980469 173.597656 L 34.980469 150.117188 Z M 34.945312 150.117188 "/><path style=" stroke:none;fill-rule:nonzero;fill:#ffffff;fill-opacity:1;" d="M 262.710938 128.25 C 263.226562 121.765625 267.363281 115.832031 272.089844 114.804688 C 273.015625 114.585938 273.480469 115.402344 273.480469 117.257812 C 273.480469 124.511719 268.535156 131.691406 263.554688 131.691406 C 258.574219 131.691406 262.347656 131.542969 262.675781 128.25 Z M 262.710938 128.25 "/></g></svg>